<svg xmlns="http://www.w3.org/2000/svg" width="47.271" height="47.271" id="cortana-microsoft">
  <g>
    <path fill="#9adaf6" d="M23.635 47.271A23.635 23.635 0 1 1 47.27 23.636a23.664 23.664 0 0 1-23.635 23.635m0-40.968a17.333 17.333 0 1 0 17.333 17.333A17.343 17.343 0 0 0 23.635 6.3"></path>
    <path fill="#1c9fe7" d="M23.635 42.543a18.908 18.908 0 1 1 18.908-18.908 18.923 18.923 0 0 1-18.908 18.908m0-33.877a14.969 14.969 0 1 0 14.969 14.969A14.983 14.983 0 0 0 23.635 8.666"></path>
  </g>
</svg>
